<?xml version="1.0" standalone="no"?>
<!DOCTYPE svg PUBLIC "-//W3C//DTD SVG 20010904//EN"
 "http://www.w3.org/TR/2001/REC-SVG-20010904/DTD/svg10.dtd">
<svg version="1.0" xmlns="http://www.w3.org/2000/svg"
 width="207.000000pt" height="100.000000pt" viewBox="0 0 207.000000 100.000000"
 preserveAspectRatio="xMidYMid meet">
<metadata>
Created by potrace 1.16, written by Peter Selinger 2001-2019
</metadata>
<g transform="translate(0.000000,100.000000) scale(0.100000,-0.100000)"
fill="#000000" stroke="none">
<path d="M0 500 l0 -500 450 0 450 0 0 500 0 500 -450 0 -450 0 0 -500z m332
204 l3 -136 114 136 114 136 100 0 101 0 -26 -27 c-14 -16 -77 -89 -140 -164
l-116 -135 155 -174 c85 -96 157 -178 159 -182 3 -4 -44 -8 -104 -8 l-110 0
-123 142 -124 141 -3 -141 -3 -142 -79 0 -80 0 0 345 0 345 80 0 79 0 3 -136z"/>
<path d="M980 501 c0 -270 3 -350 13 -354 10 -4 10 -6 0 -6 -9 -1 -13 -22 -13
-71 0 -56 3 -70 15 -70 12 0 15 14 15 70 0 40 4 70 10 70 6 0 10 -30 10 -70 0
-56 3 -70 15 -70 11 0 15 12 15 43 l1 42 20 -25 c12 -14 27 -34 35 -44 7 -11
16 -18 18 -15 11 11 9 133 -2 137 -8 2 -12 -11 -12 -40 l-1 -43 -22 30 c-12
16 -29 37 -37 45 -13 13 3 15 150 17 91 1 168 2 173 3 4 0 7 34 7 75 l0 75
-120 0 -120 0 0 60 0 60 115 0 115 0 0 75 0 75 -117 0 -118 0 3 60 4 60 118 0
119 0 3 71 3 72 123 -184 122 -183 0 -157 0 -157 48 -4 c26 -1 66 -2 90 0 l43
3 -2 156 -1 156 126 188 c69 104 126 191 126 194 0 3 -45 5 -99 5 l-99 0 -72
-110 -72 -111 -70 111 -70 110 -304 0 -304 0 0 -349z"/>
<path d="M1171 127 c-21 -21 -11 -43 26 -61 27 -13 33 -20 23 -26 -8 -5 -21
-5 -31 1 -23 12 -29 11 -29 -2 0 -17 27 -39 47 -39 19 0 53 32 53 50 0 6 -16
20 -35 31 -43 26 -44 33 -5 26 17 -4 30 -3 30 2 0 5 9 7 20 4 17 -5 20 -14 20
-59 0 -41 4 -54 15 -54 12 0 15 13 15 55 0 48 2 55 20 55 18 0 20 -7 20 -55 0
-42 3 -55 15 -55 12 0 15 14 15 70 0 40 -4 70 -10 70 -5 0 -10 -6 -10 -12 0
-10 -2 -10 -8 -1 -10 16 -176 15 -191 0z"/>
<path d="M1400 125 c0 -8 9 -15 20 -15 18 0 20 -7 20 -55 0 -42 3 -55 15 -55
11 0 15 13 15 54 0 45 3 54 20 59 18 5 20 0 20 -37 0 -67 46 -97 90 -59 14 12
20 30 20 59 0 37 2 42 20 37 17 -5 20 -14 20 -59 0 -41 4 -54 15 -54 12 0 15
13 15 55 0 48 2 55 20 55 11 0 20 7 20 15 0 12 -14 15 -70 15 l-70 0 0 -49 c0
-34 -5 -51 -15 -55 -23 -9 -45 22 -45 65 l0 39 -65 0 c-51 0 -65 -3 -65 -15z"/>
</g>
</svg>
